<svg xmlns="http://www.w3.org/2000/svg" width="33" height="50" fill="none" xmlns:v="https://vecta.io/nano"><g filter="url(#A)"><rect width="31.695" height="50" rx="2.034" fill="url(#C)"/><rect x=".098" y=".098" width="31.5" height="49.805" rx="1.936" stroke="url(#D)" stroke-width=".195"/></g><path d="M31.864 7.288h.457a.39.39 0 0 1 .391.391v3.625a.39.39 0 0 1-.391.391h-.457V7.288z" fill="url(#E)"/><path d="M31.864 13.22h.457a.39.39 0 0 1 .391.391v.744a.39.39 0 0 1-.391.391h-.457V13.22z" fill="url(#F)"/><g filter="url(#B)"><path d="M27.407 46.075c0 .185-.068.277-.203.277-.111 0-.185-.08-.222-.24l-.074-.425c-.049-.259-.117-.425-.203-.499-.086-.086-.259-.129-.517-.129H15.324c-.259 0-.431.043-.517.129-.086.074-.154.24-.203.499l-.074.425c-.037.16-.111.24-.222.24-.135 0-.203-.092-.203-.277v-3.861c0-.727.16-1.367.48-1.921.308-.554.739-.985 1.293-1.293s1.195-.462 1.921-.462c.702 0 1.324.154 1.866.462s.967.733 1.275 1.275c.296.542.443 1.17.443 1.884v1.33c0 .172.086.259.259.259h4.471c.259 0 .437-.049.536-.148.086-.099.16-.32.222-.665l.111-.684c.025-.136.092-.203.203-.203.148 0 .222.092.222.277v3.75zm-7.501-2.328c.677 0 1.016-.413 1.016-1.238 0-.8-.283-1.429-.85-1.884-.567-.468-1.342-.702-2.328-.702-1.01 0-1.792.234-2.346.702s-.831 1.133-.831 1.995c0 .751.246 1.127.739 1.127h4.6zm7.667-9.15c0 .628-.209 1.195-.628 1.7-.431.493-1.016.887-1.755 1.182s-1.564.443-2.476.443-1.731-.148-2.457-.443-1.306-.696-1.737-1.201-.647-1.065-.647-1.681c0-.628.216-1.188.647-1.681.431-.505 1.01-.905 1.737-1.201s1.546-.443 2.457-.443 1.737.148 2.476.443c.739.283 1.324.677 1.755 1.182.419.505.628 1.071.628 1.7zm-.462 0c0-1.281-1.466-1.921-4.397-1.921-2.919 0-4.379.64-4.379 1.921s1.46 1.921 4.379 1.921c2.931 0 4.397-.64 4.397-1.921zm.462-7.191c0 .542-.179 1.035-.536 1.478-.369.431-.893.776-1.57 1.035s-1.484.388-2.42.388c-1.047 0-1.958-.154-2.734-.462-.776-.32-1.373-.751-1.792-1.293-.431-.542-.647-1.145-.647-1.81 0-.567.111-1.01.333-1.33.086-.123.222-.185.406-.185l2.254-.037c.185 0 .277.074.277.222 0 .135-.08.222-.24.259-.677.172-1.201.339-1.57.499s-.622.326-.757.499a.86.86 0 0 0-.222.573c0 .246.142.505.425.776.283.259.745.48 1.386.665.628.172 1.46.259 2.494.259 1.318 0 2.309-.166 2.974-.499.665-.345.998-.788.998-1.33 0-.431-.179-.788-.536-1.072-.357-.296-1.004-.548-1.94-.758-.136-.037-.203-.111-.203-.222 0-.148.123-.203.369-.166.862.136 1.533.326 2.014.573.468.234.794.517.979.85.172.32.259.684.259 1.09zm-.166-3.508c0 .148-.068.222-.203.222-.123 0-.197-.068-.222-.203l-.037-.259c-.037-.259-.111-.425-.222-.499-.111-.086-.296-.129-.554-.129H15.583c-.222 0-.37.037-.443.111-.086.062-.142.179-.166.351l-.055.388c-.025.135-.098.203-.222.203s-.197-.068-.222-.203a4.93 4.93 0 0 0-.259-.868 4.4 4.4 0 0 0-.296-.591c-.123-.197-.185-.345-.185-.443 0-.136.098-.203.296-.203h7.741c.123 0 .203-.049.24-.148.025-.111-.018-.215-.129-.314l-2.328-2.161c-.283-.259-.517-.363-.702-.314-.197.037-.32.179-.37.425l-.074.425c-.037.16-.117.24-.24.24s-.185-.086-.185-.259v-3.178c0-.172.068-.259.203-.259s.209.08.222.24l.018.166c.025.283.135.566.332.85.185.283.48.622.887 1.016l1.219 1.145c.283.259.56.32.831.185l4.471-2.328c.246-.135.425-.283.536-.443a1.61 1.61 0 0 0 .24-.591l.037-.185c.037-.148.111-.222.222-.222.135 0 .203.086.203.259v3.215c0 .172-.068.259-.203.259-.123 0-.197-.08-.222-.24l-.037-.314c-.061-.468-.363-.567-.905-.296l-3.418 1.755c-.123.062-.191.154-.203.277-.012.111.031.215.129.314l.203.203c.111.111.222.185.332.222s.234.055.369.055h2.716c.259 0 .443-.037.554-.111.111-.086.179-.259.203-.517l.055-.499c.025-.135.099-.203.222-.203.135 0 .203.074.203.222v3.233zm.166-10.862a2.4 2.4 0 0 1-.591 1.589c-.394.468-.948.844-1.663 1.127-.727.271-1.564.406-2.513.406-.973 0-1.829-.142-2.568-.425s-1.318-.671-1.737-1.164-.628-1.041-.628-1.644c0-.727.302-1.312.905-1.755.591-.456 1.558-.684 2.901-.684.406 0 .61.154.61.462v3.51c0 .246.142.37.425.37 1.305 0 2.285-.191 2.937-.573s.979-.868.979-1.46a1.46 1.46 0 0 0-.499-1.145c-.333-.296-.893-.536-1.681-.72-.136-.037-.203-.117-.203-.24 0-.148.123-.203.37-.166 1.096.197 1.866.511 2.309.942.431.431.647.954.647 1.57zm-5.746 1.478v-1.866c0-.591-.308-.887-.924-.887-.8 0-1.429.099-1.884.296s-.684.493-.684.887c0 .48.277.887.831 1.219.554.32 1.342.53 2.365.628.197.025.296-.068.296-.277zm5.746-7.288a1.42 1.42 0 0 1-.443 1.072c-.308.271-.807.406-1.497.406h-6.909c-.148 0-.222.074-.222.222v.536c0 .197-.074.296-.222.296-.099 0-.185-.055-.259-.166-.283-.406-.585-.733-.905-.979-.333-.246-.782-.462-1.349-.647-.259-.086-.388-.191-.388-.314 0-.135.099-.203.296-.203h2.051c.172 0 .259-.086.259-.259V5.989c0-.197.086-.296.259-.296s.259.099.259.296V7.19c0 .172.086.259.259.259h6.891c.271 0 .486-.043.647-.129.148-.086.222-.246.222-.48 0-.259-.129-.468-.388-.628-.259-.172-.677-.283-1.256-.333-.172-.025-.259-.105-.259-.24 0-.148.092-.222.277-.222.948.037 1.632.234 2.051.591.419.345.628.751.628 1.219z" fill="url(#G)"/></g><defs><filter id="A" x="0" y="0" width="31.695" height="50" filterUnits="userSpaceOnUse" color-interpolation-filters="sRGB"><feFlood flood-opacity="0"/><feBlend in="SourceGraphic" result="B"/><feTurbulence type="fractalNoise" baseFrequency="11.800000190734863 11.800000190734863" stitchTiles="stitch" numOctaves="3" seed="1449"/><feColorMatrix type="luminanceToAlpha" result="D"/><feComponentTransfer><feFuncA type="discrete" tableValues="0 0 0 0 0 0 0 0 0 0 0 0 0 0 0 0 0 0 0 0 0 1 1 1 1 1 1 1 1 0 0 0 0 0 0 0 0 0 0 0 0 0 0 0 0 0 0 0 0 0 0 0 0 0 0 0 0 0 0 0 0 0 0 0 0 0 0 0 0 0 0 0 0 0 0 0 0 0 0 0 0 0 0 0 0 0 0 0 0 0 0 0 0 0 0 0 0 0 0 0 "/></feComponentTransfer><feComposite operator="in" in2="B" result="F"/><feComponentTransfer in="D"><feFuncA type="discrete" tableValues="0 0 0 0 0 0 0 0 0 0 0 0 0 0 0 0 0 0 0 0 0 0 0 0 0 0 0 0 0 0 0 0 0 0 0 0 0 0 0 0 0 0 0 0 0 0 0 0 0 0 0 0 0 0 0 0 0 0 0 0 0 0 0 0 0 0 0 0 0 0 0 1 1 1 1 1 1 1 1 0 0 0 0 0 0 0 0 0 0 0 0 0 0 0 0 0 0 0 0 0 "/></feComponentTransfer><feComposite operator="in" in2="B" result="H"/><feFlood flood-color="rgba(0, 0, 0, 0.45)"/><feComposite operator="in" in2="F" result="J"/><feFlood flood-color="rgba(255, 255, 255, 0.25)"/><feComposite operator="in" in2="H" result="L"/><feMerge><feMergeNode in="B"/><feMergeNode in="J"/><feMergeNode in="L"/></feMerge></filter><filter id="B" x="13.397" y="5.247" width="14.516" height="41.614" filterUnits="userSpaceOnUse" color-interpolation-filters="sRGB"><feFlood flood-opacity="0" result="A"/><feColorMatrix in="SourceAlpha" values="0 0 0 0 0 0 0 0 0 0 0 0 0 0 0 0 0 0 127 0" result="B"/><feOffset dy="0.169492"/><feGaussianBlur stdDeviation=".169"/><feComposite in2="B" operator="out"/><feColorMatrix values="0 0 0 0 0 0 0 0 0 0 0 0 0 0 0 0 0 0 0.15 0"/><feBlend in2="A"/><feBlend in="SourceGraphic"/></filter><linearGradient id="C" x1="31.695" y1="0" x2=".847" y2="50" href="#H"><stop stop-color="#8b8e93"/><stop offset="1" stop-color="#76787c"/></linearGradient><linearGradient id="D" x1="15.848" y1="0" x2="15.932" y2="19.661" href="#H"><stop stop-color="#fff" stop-opacity=".07"/><stop offset="1" stop-color="#fff" stop-opacity="0"/></linearGradient><linearGradient id="E" x1="31.864" y1="9.491" x2="32.712" y2="9.491" href="#H"><stop stop-color="#888b90"/><stop offset="1" stop-color="#7b7f86"/></linearGradient><linearGradient id="F" x1="31.864" y1="13.983" x2="32.712" y2="13.983" href="#H"><stop stop-color="#888b90"/><stop offset="1" stop-color="#7b7f86"/></linearGradient><linearGradient id="G" x1="20.907" y1="4.932" x2="20.907" y2="46.932" href="#H"><stop stop-color="#a7aab1"/><stop offset="1" stop-color="#919398"/></linearGradient><linearGradient id="H" gradientUnits="userSpaceOnUse"/></defs></svg>