<svg width="17" height="16" viewBox="0 0 17 16" fill="none" xmlns="http://www.w3.org/2000/svg">
<path d="M14.0452 9.33333C14.3552 9.33333 14.5102 9.33333 14.6373 9.29926C14.9824 9.20679 15.252 8.93724 15.3445 8.59215C15.3785 8.46499 15.3785 8.30999 15.3785 8C15.3785 7.69001 15.3785 7.53501 15.3445 7.40785C15.252 7.06276 14.9824 6.79321 14.6373 6.70074C14.5102 6.66667 14.3552 6.66667 14.0452 6.66667M4.71186 6.66667V9.33333M8.0452 6.66667V9.33333M6.0452 4H10.0452C11.2877 4 11.909 4 12.399 4.20299C13.0524 4.47364 13.5716 4.99277 13.8422 5.64618C14.0452 6.13623 14.0452 6.75749 14.0452 8C14.0452 9.24251 14.0452 9.86377 13.8422 10.3538C13.5716 11.0072 13.0524 11.5264 12.399 11.797C11.909 12 11.2877 12 10.0452 12H6.0452C4.80269 12 4.18143 12 3.69137 11.797C3.03797 11.5264 2.51884 11.0072 2.24818 10.3538C2.0452 9.86377 2.0452 9.24251 2.0452 8C2.0452 6.75749 2.0452 6.13623 2.24818 5.64618C2.51884 4.99277 3.03797 4.47364 3.69137 4.20299C4.18143 4 4.80269 4 6.0452 4Z" stroke="white" stroke-opacity="0.5" stroke-width="1.33333" stroke-linecap="round" stroke-linejoin="round"/>
</svg>
