<svg width="24" height="24" viewBox="0 0 24 24" fill="none" xmlns="http://www.w3.org/2000/svg">
<path d="M3 20H21" stroke="white" stroke-width="2" stroke-linecap="round" stroke-linejoin="round"/>
<path d="M3 14H21" stroke="white" stroke-width="2" stroke-linecap="round" stroke-linejoin="round"/>
<path d="M17 7L21 7" stroke="white" stroke-width="2" stroke-linecap="round" stroke-linejoin="round"/>
<path d="M5.4 4V4C4.07452 4 3 5.07452 3 6.4V7.5C3 8.32843 3.67157 9 4.5 9H5C5.55228 9 6 8.55228 6 8V8C6 7.44772 5.55228 7 5 7H3.5" stroke="white" stroke-width="2" stroke-linecap="round" stroke-linejoin="round"/>
<path d="M12.4 4V4C11.0745 4 10 5.07452 10 6.4V7.5C10 8.32843 10.6716 9 11.5 9H12C12.5523 9 13 8.55228 13 8V8C13 7.44772 12.5523 7 12 7H10.5" stroke="white" stroke-width="2" stroke-linecap="round" stroke-linejoin="round"/>
</svg>
