<svg width="18" height="18" viewBox="0 0 18 18" fill="none" xmlns="http://www.w3.org/2000/svg">
<path d="M14.5957 14.7174C14.5144 13.3141 13.2938 12.2 11.8 12.2H6.2C4.70621 12.2 3.48563 13.3141 3.40431 14.7174M14.5957 14.7174C16.0793 13.2651 17 11.2401 17 9C17 4.58172 13.4183 1 9 1C4.58172 1 1 4.58172 1 9C1 11.2401 1.92069 13.2651 3.40431 14.7174M14.5957 14.7174C13.1531 16.1295 11.1782 17 9 17C6.82181 17 4.84694 16.1295 3.40431 14.7174M11.4 7.4C11.4 8.72548 10.3255 9.8 9 9.8C7.67452 9.8 6.6 8.72548 6.6 7.4C6.6 6.07452 7.67452 5 9 5C10.3255 5 11.4 6.07452 11.4 7.4Z" stroke="#111111" stroke-width="1.6" stroke-linecap="round" stroke-linejoin="round"/>
</svg>
