<svg width="19" height="18" viewBox="0 0 19 18" fill="none" xmlns="http://www.w3.org/2000/svg">
<path d="M12.7151 1.5C12.1228 1.77736 11.5701 2.12942 11.0706 2.54723C11.0278 2.58307 11.0003 2.63107 10.9899 2.68253L10.9894 2.68524M12.1225 4.44089C11.6839 3.95579 11.3106 3.41715 11.0119 2.83853C10.9868 2.78976 10.9798 2.73591 10.9894 2.68524M10.9894 2.68524L10.9716 2.68253M10.9894 2.68524C13.1943 3.02203 15.1886 3.99891 16.7767 5.4203M7.0436 15.1536L2.70258 11.2482C2.43951 11.0115 2.44099 10.5986 2.70576 10.3638C3.52001 9.64174 4.72119 9.56657 5.61917 10.1814L6.94397 11.0885L5.00283 3.84401C4.78842 3.04381 5.26329 2.2213 6.06349 2.00689C6.86371 1.79247 7.6862 2.26735 7.90061 3.06755L9.06529 7.41422L12.7042 7.06143C15.3723 6.80286 16.2546 9.66582 16.0433 11.839C15.671 15.6665 9.86336 17.6904 7.0436 15.1536Z" stroke="black" stroke-width="1.5" stroke-linecap="round" stroke-linejoin="round"/>
</svg>
