<svg width="24" height="24" viewBox="0 0 24 24" fill="none" xmlns="http://www.w3.org/2000/svg">
<path d="M11.9996 21.1501C17.053 21.1501 21.1496 17.0535 21.1496 12.0001C21.1496 6.94669 17.053 2.8501 11.9996 2.8501C6.9462 2.8501 2.84961 6.94669 2.84961 12.0001C2.84961 17.0535 6.9462 21.1501 11.9996 21.1501Z" stroke="white" stroke-width="2" stroke-linecap="round" stroke-linejoin="round"/>
<path d="M8.99963 10.6C8.99963 10.0399 8.99963 9.75992 9.10863 9.54601C9.2045 9.35785 9.35748 9.20487 9.54564 9.10899C9.75956 9 10.0396 9 10.5996 9H13.3996C13.9597 9 14.2397 9 14.4536 9.10899C14.6418 9.20487 14.7948 9.35785 14.8906 9.54601C14.9996 9.75992 14.9996 10.0399 14.9996 10.6V13.4C14.9996 13.9601 14.9996 14.2401 14.8906 14.454C14.7948 14.6422 14.6418 14.7951 14.4536 14.891C14.2397 15 13.9597 15 13.3996 15H10.5996C10.0396 15 9.75956 15 9.54564 14.891C9.35748 14.7951 9.2045 14.6422 9.10863 14.454C8.99963 14.2401 8.99963 13.9601 8.99963 13.4V10.6Z" stroke="white" stroke-width="2" stroke-linecap="round" stroke-linejoin="round"/>
</svg>
